<svg width="48" height="48" viewBox="0 0 48 48" fill="none" xmlns="http://www.w3.org/2000/svg" xmlns:xlink="http://www.w3.org/1999/xlink">
<line x1="14.5" y1="4" x2="14.5" y2="10" stroke="#96A0B5" stroke-width="1.5" stroke-miterlimit="10" stroke-linecap="round" stroke-linejoin="round"/>
<line x1="30.5" y1="4" x2="30.5" y2="10" stroke="#96A0B5" stroke-width="1.5" stroke-miterlimit="10" stroke-linecap="round" stroke-linejoin="round"/>
<line x1="7" y1="16.68" x2="41" y2="16.68" stroke="#96A0B5" stroke-width="1.5" stroke-miterlimit="10" stroke-linecap="round" stroke-linejoin="round"/>
<path d="M40.5,17L40.5,34L43.5,34L43.5,17L40.5,17ZM40.5,34C40.5,36.77 39.807,38.849 38.526,40.229C37.263,41.589 35.214,42.5 32,42.5L32,45.5C35.786,45.5 38.737,44.411 40.724,42.271C42.693,40.151 43.5,37.23 43.5,34L40.5,34ZM32,42.5L16,42.5L16,45.5L32,45.5L32,42.5ZM16,42.5C12.786,42.5 10.737,41.589 9.474,40.229C8.193,38.849 7.5,36.77 7.5,34L4.5,34C4.5,37.23 5.307,40.151 7.276,42.271C9.263,44.411 12.214,45.5 16,45.5L16,42.5ZM7.5,34L7.5,17L4.5,17L4.5,34L7.5,34ZM7.5,17C7.5,14.23 8.193,12.151 9.474,10.771C10.737,9.411 12.786,8.5 16,8.5L16,5.5C12.214,5.5 9.263,6.589 7.276,8.729C5.307,10.849 4.5,13.77 4.5,17L7.5,17ZM16,8.5L32,8.5L32,5.5L16,5.5L16,8.5ZM32,8.5C35.214,8.5 37.263,9.411 38.526,10.771C39.807,12.151 40.5,14.23 40.5,17L43.5,17C43.5,13.77 42.693,10.849 40.724,8.729C38.737,6.589 35.786,5.5 32,5.5L32,8.5Z" fill="#96A0B5"/>
<path d="M31.389,25.4C30.285,25.4 29.389,26.295 29.389,27.4C29.389,28.505 30.285,29.4 31.389,29.4L31.389,25.4ZM31.407,29.4C32.512,29.4 33.407,28.505 33.407,27.4C33.407,26.295 32.512,25.4 31.407,25.4L31.407,29.4ZM31.389,29.4L31.407,29.4L31.407,25.4L31.389,25.4L31.389,29.4Z" fill="#96A0B5"/>
<path d="M31.389,31.4C30.285,31.4 29.389,32.295 29.389,33.4C29.389,34.505 30.285,35.4 31.389,35.4L31.389,31.4ZM31.407,35.4C32.512,35.4 33.407,34.505 33.407,33.4C33.407,32.295 32.512,31.4 31.407,31.4L31.407,35.4ZM31.389,35.4L31.407,35.4L31.407,31.4L31.389,31.4L31.389,35.4Z" fill="#96A0B5"/>
<path d="M23.991,25.4C22.886,25.4 21.991,26.295 21.991,27.4C21.991,28.505 22.886,29.4 23.991,29.4L23.991,25.4ZM24.009,29.4C25.113,29.4 26.009,28.505 26.009,27.4C26.009,26.295 25.113,25.4 24.009,25.4L24.009,29.4ZM23.991,29.4L24.009,29.4L24.009,25.4L23.991,25.4L23.991,29.4Z" fill="#96A0B5"/>
<path d="M23.991,31.4C22.886,31.4 21.991,32.295 21.991,33.4C21.991,34.505 22.886,35.4 23.991,35.4L23.991,31.4ZM24.009,35.4C25.113,35.4 26.009,34.505 26.009,33.4C26.009,32.295 25.113,31.4 24.009,31.4L24.009,35.4ZM23.991,35.4L24.009,35.4L24.009,31.4L23.991,31.4L23.991,35.4Z" fill="#96A0B5"/>
<path d="M16.589,25.4C15.484,25.4 14.589,26.295 14.589,27.4C14.589,28.505 15.484,29.4 16.589,29.4L16.589,25.4ZM16.607,29.4C17.711,29.4 18.607,28.505 18.607,27.4C18.607,26.295 17.711,25.4 16.607,25.4L16.607,29.4ZM16.589,29.4L16.607,29.4L16.607,25.4L16.589,25.4L16.589,29.4Z" fill="#96A0B5"/>
<path d="M16.589,31.4C15.484,31.4 14.589,32.295 14.589,33.4C14.589,34.505 15.484,35.4 16.589,35.4L16.589,31.4ZM16.607,35.4C17.711,35.4 18.607,34.505 18.607,33.4C18.607,32.295 17.711,31.4 16.607,31.4L16.607,35.4ZM16.589,35.4L16.607,35.4L16.607,31.4L16.589,31.4L16.589,35.4Z" fill="#96A0B5"/>
</svg>
