<svg width="48" height="48" viewBox="0 0 48 48" fill="none" xmlns="http://www.w3.org/2000/svg" xmlns:xlink="http://www.w3.org/1999/xlink">
<path d="M10,21.5L14,21.5L14,18.5L10,18.5L10,21.5ZM14,21.5C16.231,21.5 18.18,20.941 19.561,19.561C20.941,18.18 21.5,16.231 21.5,14L18.5,14C18.5,15.769 18.059,16.82 17.439,17.439C16.82,18.059 15.769,18.5 14,18.5L14,21.5ZM21.5,14L21.5,10L18.5,10L18.5,14L21.5,14ZM21.5,10C21.5,7.769 20.941,5.82 19.561,4.439C18.18,3.059 16.231,2.5 14,2.5L14,5.5C15.769,5.5 16.82,5.941 17.439,6.561C18.059,7.18 18.5,8.231 18.5,10L21.5,10ZM14,2.5L10,2.5L10,5.5L14,5.5L14,2.5ZM10,2.5C7.769,2.5 5.82,3.059 4.439,4.439C3.059,5.82 2.5,7.769 2.5,10L5.5,10C5.5,8.231 5.941,7.18 6.561,6.561C7.18,5.941 8.231,5.5 10,5.5L10,2.5ZM2.5,10L2.5,14L5.5,14L5.5,10L2.5,10ZM2.5,14C2.5,16.231 3.059,18.18 4.439,19.561C5.82,20.941 7.769,21.5 10,21.5L10,18.5C8.231,18.5 7.18,18.059 6.561,17.439C5.941,16.82 5.5,15.769 5.5,14L2.5,14Z" fill="#697896"/>
<path d="M34,21.5L38,21.5L38,18.5L34,18.5L34,21.5ZM38,21.5C40.231,21.5 42.18,20.941 43.561,19.561C44.941,18.18 45.5,16.231 45.5,14L42.5,14C42.5,15.769 42.059,16.82 41.439,17.439C40.82,18.059 39.769,18.5 38,18.5L38,21.5ZM45.5,14L45.5,10L42.5,10L42.5,14L45.5,14ZM45.5,10C45.5,7.769 44.941,5.82 43.561,4.439C42.18,3.059 40.231,2.5 38,2.5L38,5.5C39.769,5.5 40.82,5.941 41.439,6.561C42.059,7.18 42.5,8.231 42.5,10L45.5,10ZM38,2.5L34,2.5L34,5.5L38,5.5L38,2.5ZM34,2.5C31.769,2.5 29.82,3.059 28.439,4.439C27.059,5.82 26.5,7.769 26.5,10L29.5,10C29.5,8.231 29.941,7.18 30.561,6.561C31.18,5.941 32.231,5.5 34,5.5L34,2.5ZM26.5,10L26.5,14L29.5,14L29.5,10L26.5,10ZM26.5,14C26.5,16.231 27.059,18.18 28.439,19.561C29.82,20.941 31.769,21.5 34,21.5L34,18.5C32.231,18.5 31.18,18.059 30.561,17.439C29.941,16.82 29.5,15.769 29.5,14L26.5,14Z" fill="#697896"/>
<path d="M34,45.5L38,45.5L38,42.5L34,42.5L34,45.5ZM38,45.5C40.231,45.5 42.18,44.941 43.561,43.561C44.941,42.18 45.5,40.231 45.5,38L42.5,38C42.5,39.769 42.059,40.82 41.439,41.439C40.82,42.059 39.769,42.5 38,42.5L38,45.5ZM45.5,38L45.5,34L42.5,34L42.5,38L45.5,38ZM45.5,34C45.5,31.769 44.941,29.82 43.561,28.439C42.18,27.059 40.231,26.5 38,26.5L38,29.5C39.769,29.5 40.82,29.941 41.439,30.561C42.059,31.18 42.5,32.231 42.5,34L45.5,34ZM38,26.5L34,26.5L34,29.5L38,29.5L38,26.5ZM34,26.5C31.769,26.5 29.82,27.059 28.439,28.439C27.059,29.82 26.5,31.769 26.5,34L29.5,34C29.5,32.231 29.941,31.18 30.561,30.561C31.18,29.941 32.231,29.5 34,29.5L34,26.5ZM26.5,34L26.5,38L29.5,38L29.5,34L26.5,34ZM26.5,38C26.5,40.231 27.059,42.18 28.439,43.561C29.82,44.941 31.769,45.5 34,45.5L34,42.5C32.231,42.5 31.18,42.059 30.561,41.439C29.941,40.82 29.5,39.769 29.5,38L26.5,38Z" fill="#697896"/>
<path d="M10,45.5L14,45.5L14,42.5L10,42.5L10,45.5ZM14,45.5C16.231,45.5 18.18,44.941 19.561,43.561C20.941,42.18 21.5,40.231 21.5,38L18.5,38C18.5,39.769 18.059,40.82 17.439,41.439C16.82,42.059 15.769,42.5 14,42.5L14,45.5ZM21.5,38L21.5,34L18.5,34L18.5,38L21.5,38ZM21.5,34C21.5,31.769 20.941,29.82 19.561,28.439C18.18,27.059 16.231,26.5 14,26.5L14,29.5C15.769,29.5 16.82,29.941 17.439,30.561C18.059,31.18 18.5,32.231 18.5,34L21.5,34ZM14,26.5L10,26.5L10,29.5L14,29.5L14,26.5ZM10,26.5C7.769,26.5 5.82,27.059 4.439,28.439C3.059,29.82 2.5,31.769 2.5,34L5.5,34C5.5,32.231 5.941,31.18 6.561,30.561C7.18,29.941 8.231,29.5 10,29.5L10,26.5ZM2.5,34L2.5,38L5.5,38L5.5,34L2.5,34ZM2.5,38C2.5,40.231 3.059,42.18 4.439,43.561C5.82,44.941 7.769,45.5 10,45.5L10,42.5C8.231,42.5 7.18,42.059 6.561,41.439C5.941,40.82 5.5,39.769 5.5,38L2.5,38Z" fill="#697896"/>
</svg>
