<svg width="48" height="48" viewBox="0 0 48 48" fill="none" xmlns="http://www.w3.org/2000/svg" xmlns:xlink="http://www.w3.org/1999/xlink">
<path d="M29.66,24C29.66,27.132 27.132,29.66 24,29.66L24,32.66C28.788,32.66 32.66,28.788 32.66,24L29.66,24ZM24,29.66C20.868,29.66 18.34,27.132 18.34,24L15.34,24C15.34,28.788 19.212,32.66 24,32.66L24,29.66ZM18.34,24C18.34,20.868 20.868,18.34 24,18.34L24,15.34C19.212,15.34 15.34,19.212 15.34,24L18.34,24ZM24,18.34C27.132,18.34 29.66,20.868 29.66,24L32.66,24C32.66,19.212 28.788,15.34 24,15.34L24,18.34Z" fill="#96A0B5"/>
<path d="M42.22,29.18L40.956,28.373L40.954,28.375L42.22,29.18ZM42.22,18.8L40.954,19.605L40.956,19.607L42.22,18.8ZM5.78,18.8L7.044,19.607L7.046,19.605L5.78,18.8ZM5.78,29.18L7.046,28.375L7.044,28.373L5.78,29.18ZM24,42.04C31.696,42.04 38.704,37.502 43.486,29.985L40.954,28.375C36.576,35.258 30.424,39.04 24,39.04L24,42.04ZM43.484,29.987C44.575,28.278 45.07,26.089 45.07,23.99C45.07,21.892 44.575,19.702 43.484,17.993L40.956,19.607C41.665,20.718 42.07,22.308 42.07,23.99C42.07,25.672 41.665,27.262 40.956,28.373L43.484,29.987ZM43.486,17.995C38.704,10.478 31.696,5.94 24,5.94L24,8.94C30.424,8.94 36.576,12.722 40.954,19.605L43.486,17.995ZM24,5.94C16.304,5.94 9.296,10.478 4.514,17.995L7.046,19.605C11.424,12.722 17.576,8.94 24,8.94L24,5.94ZM4.516,17.993C3.425,19.702 2.93,21.892 2.93,23.99C2.93,26.089 3.425,28.278 4.516,29.987L7.044,28.373C6.335,27.262 5.93,25.672 5.93,23.99C5.93,22.308 6.335,20.718 7.044,19.607L4.516,17.993ZM4.514,29.985C9.296,37.502 16.304,42.04 24,42.04L24,39.04C17.576,39.04 11.424,35.258 7.046,28.375L4.514,29.985Z" fill="#96A0B5"/>
</svg>
