<svg width="42" height="42" viewBox="0 0 42 42" fill="none" xmlns="http://www.w3.org/2000/svg" xmlns:xlink="http://www.w3.org/1999/xlink">
<path d="M38.889,27.516L37.389,27.508L37.389,27.516L38.889,27.516ZM14.335,0.552L14.335,-0.948L14.335,0.552ZM17.986,2.377L16.786,3.277L16.787,3.279L17.986,2.377ZM19.812,4.805L18.613,5.707L18.614,5.708L19.812,4.805ZM23.463,6.631L23.46,8.131L23.463,8.131L23.463,6.631ZM38.944,17.585L40.444,17.593L40.444,17.585L38.944,17.585ZM37.389,27.516C37.389,30.8 36.427,33.224 34.825,34.825C33.224,36.427 30.8,37.389 27.516,37.389L27.516,40.389C31.388,40.389 34.651,39.243 36.947,36.947C39.243,34.651 40.389,31.388 40.389,27.516L37.389,27.516ZM27.516,37.389L11.943,37.389L11.943,40.389L27.516,40.389L27.516,37.389ZM11.943,37.389C8.649,37.389 6.221,36.427 4.617,34.825C3.014,33.223 2.052,30.8 2.052,27.516L-0.948,27.516C-0.948,31.388 0.198,34.651 2.497,36.947C4.796,39.243 8.063,40.389 11.943,40.389L11.943,37.389ZM2.052,27.516L2.052,11.925L-0.948,11.925L-0.948,27.516L2.052,27.516ZM2.052,11.925C2.052,8.482 2.693,6.048 3.934,4.489C5.118,3.002 7.063,2.052 10.337,2.052L10.337,-0.948C6.455,-0.948 3.507,0.21 1.587,2.62C-0.275,4.96 -0.948,8.212 -0.948,11.925L2.052,11.925ZM10.337,2.052L14.335,2.052L14.335,-0.948L10.337,-0.948L10.337,2.052ZM14.335,2.052C15.299,2.052 16.208,2.506 16.786,3.277L19.186,1.477C18.041,-0.05 16.244,-0.948 14.335,-0.948L14.335,2.052ZM16.787,3.279L18.613,5.707L21.011,3.904L19.185,1.476L16.787,3.279ZM18.614,5.708C19.76,7.23 21.554,8.127 23.46,8.131L23.466,5.131C22.5,5.129 21.591,4.675 21.01,3.903L18.614,5.708ZM23.463,8.131L29.122,8.131L29.122,5.131L23.463,5.131L23.463,8.131ZM29.122,8.131C32.472,8.131 34.418,8.979 35.583,10.343C36.794,11.762 37.444,14.059 37.444,17.585L40.444,17.585C40.444,13.807 39.77,10.628 37.864,8.395C35.912,6.109 32.947,5.131 29.122,5.131L29.122,8.131ZM37.444,17.576L37.389,27.508L40.389,27.524L40.444,17.593L37.444,17.576Z" fill="#96A0B5"/>
<path d="M10.118,23.478C9.289,23.478 8.618,24.15 8.618,24.978C8.618,25.807 9.289,26.478 10.118,26.478L10.118,23.478ZM29.305,26.478C30.133,26.478 30.805,25.807 30.805,24.978C30.805,24.15 30.133,23.478 29.305,23.478L29.305,26.478ZM10.118,26.478L29.305,26.478L29.305,23.478L10.118,23.478L10.118,26.478Z" fill="#96A0B5"/>
</svg>
