<svg width="40" height="40" viewBox="0 0 40 40" fill="none" xmlns="http://www.w3.org/2000/svg" xmlns:xlink="http://www.w3.org/1999/xlink">
<path d="M22.9,5.76L29.04,5.76C36.42,5.76 40.02,9.7 40,17.78L40,27.52C40,35.24 35.24,40 27.5,40L12.48,40C4.78,40 0,35.24 0,27.5L0,12.48C0,4.2 3.68,0 10.94,0L14.1,0C15.962,-0.02 17.7,0.84 18.84,2.3L20.6,4.64C21.16,5.34 22,5.76 22.9,5.76ZM10.74,26.58L29.26,26.58C30.08,26.58 30.74,25.9 30.74,25.08C30.74,24.24 30.08,23.58 29.26,23.58L10.74,23.58C9.9,23.58 9.24,24.24 9.24,25.08C9.24,25.9 9.9,26.58 10.74,26.58Z" clip-rule="evenodd" fill-rule="evenodd" fill="#191D2B"/>
</svg>
