<svg width="48" height="48" viewBox="0 0 48 48" fill="none" xmlns="http://www.w3.org/2000/svg" xmlns:xlink="http://www.w3.org/1999/xlink">
<path d="M43.612,20.083L42.001,20.083L42.001,20L24.001,20L24.001,28L35.304,28C33.655,32.657 29.224,36 24.001,36C17.374,36 12.001,30.627 12.001,24C12.001,17.373 17.374,12 24.001,12C27.06,12 29.843,13.154 31.962,15.039L37.619,9.382C34.047,6.053 29.269,4 24.001,4C12.956,4 4.001,12.955 4.001,24C4.001,35.045 12.956,44 24.001,44C35.046,44 44.001,35.045 44.001,24C44.001,22.659 43.863,21.35 43.612,20.083Z" fill="#FFC107"/>
<path d="M6.307,14.691L12.878,19.51C14.656,15.108 18.962,12 24.001,12C27.06,12 29.843,13.154 31.962,15.039L37.619,9.382C34.047,6.053 29.269,4 24.001,4C16.319,4 9.657,8.337 6.307,14.691Z" fill="#FF3D00"/>
<path d="M24,44C29.166,44 33.86,42.023 37.409,38.808L31.219,33.57C29.143,35.148 26.607,36.002 24,36C18.798,36 14.381,32.683 12.717,28.054L6.195,33.079C9.505,39.556 16.227,44 24,44Z" fill="#4CAF50"/>
<path d="M43.611,20.083L42,20.083L42,20L24,20L24,28L35.303,28C34.514,30.216 33.093,32.153 31.216,33.571L31.219,33.569L37.409,38.807C36.971,39.205 44,34 44,24C44,22.659 43.862,21.35 43.611,20.083Z" fill="#1976D2"/>
</svg>
