<svg width="48" height="48" viewBox="0 0 48 48" fill="none" xmlns="http://www.w3.org/2000/svg" xmlns:xlink="http://www.w3.org/1999/xlink">
<path d="M10.9,27.72L12.185,28.494L12.188,28.488L10.9,27.72ZM8.6,31.54L7.315,30.766L7.315,30.767L8.6,31.54ZM10.76,37.4L10.279,38.821L10.285,38.823L10.76,37.4ZM37.3,37.4L36.829,35.976L36.825,35.977L37.3,37.4ZM39.46,31.54L40.746,30.768L40.745,30.766L39.46,31.54ZM37.16,27.72L35.861,28.47L35.875,28.494L37.16,27.72ZM24.04,4.32C16.592,4.32 10.54,10.372 10.54,17.82L13.54,17.82C13.54,12.028 18.248,7.32 24.04,7.32L24.04,4.32ZM10.54,17.82L10.54,23.6L13.54,23.6L13.54,17.82L10.54,17.82ZM10.54,23.6C10.54,24.029 10.443,24.657 10.257,25.326C10.072,25.995 9.831,26.584 9.612,26.952L12.188,28.488C12.589,27.816 12.918,26.955 13.148,26.129C13.377,25.303 13.54,24.391 13.54,23.6L10.54,23.6ZM9.615,26.946L7.315,30.766L9.885,32.314L12.185,28.494L9.615,26.946ZM7.315,30.767C6.393,32.299 6.2,34.018 6.766,35.546C7.331,37.072 8.594,38.251 10.279,38.821L11.241,35.979C10.326,35.669 9.799,35.098 9.579,34.504C9.36,33.912 9.387,33.141 9.885,32.313L7.315,30.767ZM10.285,38.823C19.213,41.806 28.847,41.806 37.775,38.823L36.825,35.977C28.513,38.754 19.547,38.754 11.235,35.977L10.285,38.823ZM37.771,38.824C41.109,37.721 42.558,33.787 40.746,30.768L38.174,32.312C39.002,33.693 38.331,35.479 36.829,35.976L37.771,38.824ZM40.745,30.766L38.445,26.946L35.875,28.494L38.175,32.314L40.745,30.766ZM38.459,26.97C38.244,26.596 38.006,26.001 37.822,25.331C37.637,24.659 37.54,24.03 37.54,23.6L34.54,23.6C34.54,24.39 34.703,25.301 34.929,26.124C35.155,26.949 35.477,27.804 35.861,28.47L38.459,26.97ZM37.54,23.6L37.54,17.82L34.54,17.82L34.54,23.6L37.54,23.6ZM37.54,17.82C37.54,10.392 31.469,4.32 24.04,4.32L24.04,7.32C29.812,7.32 34.54,12.048 34.54,17.82L37.54,17.82Z" fill="#191D2B"/>
<path d="M27.74,6.4L27.322,7.841C27.871,8 28.462,7.833 28.848,7.411C29.233,6.989 29.345,6.385 29.137,5.853L27.74,6.4ZM25.82,6L25.634,7.488L25.639,7.489L25.82,6ZM20.34,6.4L18.943,5.853C18.735,6.385 18.847,6.989 19.232,7.412C19.618,7.834 20.21,8 20.759,7.84L20.34,6.4ZM28.158,4.959C27.473,4.761 26.753,4.602 26,4.511L25.639,7.489C26.207,7.558 26.767,7.679 27.322,7.841L28.158,4.959ZM26.006,4.512C23.895,4.248 21.848,4.399 19.921,4.96L20.759,7.84C22.272,7.401 23.905,7.272 25.634,7.488L26.006,4.512ZM21.737,6.947C22.098,6.026 22.994,5.38 24.04,5.38L24.04,2.38C21.726,2.38 19.742,3.814 18.943,5.853L21.737,6.947ZM24.04,5.38C25.086,5.38 25.982,6.026 26.343,6.947L29.137,5.853C28.338,3.814 26.354,2.38 24.04,2.38L24.04,5.38Z" fill="#191D2B"/>
<path d="M28.54,38.12C28.54,40.592 26.512,42.62 24.04,42.62L24.04,45.62C28.168,45.62 31.54,42.248 31.54,38.12L28.54,38.12ZM24.04,42.62C22.815,42.62 21.672,42.11 20.861,41.299L18.739,43.421C20.088,44.77 21.985,45.62 24.04,45.62L24.04,42.62ZM20.861,41.299C20.05,40.488 19.54,39.345 19.54,38.12L16.54,38.12C16.54,40.175 17.39,42.072 18.739,43.421L20.861,41.299Z" fill="#191D2B"/>
</svg>
