<svg width="28" height="28" viewBox="0 0 28 28" fill="none" xmlns="http://www.w3.org/2000/svg" xmlns:xlink="http://www.w3.org/1999/xlink">
<path d="M14,27.333C6.64,27.333 0.667,21.373 0.667,14C0.667,6.64 6.64,0.667 14,0.667C21.373,0.667 27.333,6.64 27.333,14C27.333,21.373 21.373,27.333 14,27.333ZM18.253,18.947C18.413,19.04 18.587,19.093 18.773,19.093C19.107,19.093 19.44,18.92 19.627,18.6C19.907,18.133 19.76,17.52 19.28,17.227L14.533,14.4L14.533,8.24C14.533,7.68 14.08,7.24 13.533,7.24C12.987,7.24 12.533,7.68 12.533,8.24L12.533,14.973C12.533,15.32 12.72,15.64 13.027,15.827L18.253,18.947Z" clip-rule="evenodd" fill-rule="evenodd" fill="#96A0B5"/>
</svg>
