<svg width="28" height="28" viewBox="0 0 28 28" fill="none" xmlns="http://www.w3.org/2000/svg" xmlns:xlink="http://www.w3.org/1999/xlink">
<path d="M14,0.667C6.653,0.667 0.667,6.653 0.667,14C0.667,21.347 6.653,27.333 14,27.333C21.347,27.333 27.333,21.347 27.333,14C27.333,6.653 21.347,0.667 14,0.667ZM19.8,18.76C19.613,19.08 19.28,19.253 18.933,19.253C18.76,19.253 18.587,19.213 18.427,19.107L14.293,16.64C13.267,16.027 12.507,14.68 12.507,13.493L12.507,8.027C12.507,7.48 12.96,7.027 13.507,7.027C14.053,7.027 14.507,7.48 14.507,8.027L14.507,13.493C14.507,13.973 14.907,14.68 15.32,14.92L19.453,17.387C19.933,17.667 20.093,18.28 19.8,18.76Z" fill="#FFFFFF"/>
</svg>
