<svg width="34" height="40" viewBox="0 0 34 40" fill="none" xmlns="http://www.w3.org/2000/svg" xmlns:xlink="http://www.w3.org/1999/xlink">
<path d="M10.188,38.012C8.93,37.944 7.747,37.395 6.882,36.48C5.847,35.484 4.924,34.379 4.128,33.184C2.885,31.404 1.902,29.456 1.21,27.398C0.426,25.184 0.014,22.856 -0.01,20.508C-0.071,18.204 0.5,15.927 1.64,13.924C2.475,12.48 3.666,11.274 5.1,10.422C6.518,9.573 8.136,9.116 9.788,9.098C11.034,9.172 12.258,9.456 13.408,9.94C14.326,10.344 15.29,10.628 16.28,10.784C17.372,10.555 18.439,10.22 19.466,9.784C20.681,9.309 21.968,9.044 23.272,8.998C23.446,8.998 23.618,8.998 23.784,9.018C26.644,9.1 29.304,10.504 30.984,12.818C29.673,13.519 28.582,14.57 27.832,15.855C27.083,17.139 26.704,18.605 26.738,20.092C26.725,21.229 26.953,22.355 27.407,23.397C27.861,24.439 28.531,25.374 29.372,26.138C30.138,26.868 31.03,27.452 32.004,27.864C31.804,28.464 31.574,29.044 31.33,29.628C30.776,30.919 30.093,32.149 29.29,33.302C28.531,34.457 27.648,35.524 26.656,36.486C25.751,37.384 24.545,37.913 23.272,37.972C22.193,37.924 21.132,37.671 20.148,37.226C19.086,36.764 17.946,36.51 16.788,36.48C15.598,36.503 14.423,36.755 13.328,37.222C12.382,37.649 11.371,37.914 10.338,38.008L10.188,38.012L10.188,38.012ZM16.488,8.998C16.338,8.998 16.188,8.998 16.038,8.98C16.006,8.742 15.99,8.502 15.988,8.262C16.053,6.264 16.834,4.356 18.188,2.886C18.945,2.041 19.863,1.355 20.888,0.868C21.843,0.376 22.887,0.08 23.958,-0.002C23.988,0.26 23.988,0.516 23.988,0.76C23.96,2.726 23.221,4.616 21.908,6.08C21.272,6.932 20.458,7.635 19.521,8.139C18.585,8.644 17.55,8.937 16.488,8.998L16.488,8.998Z" fill="#191D2B"/>
</svg>
