<svg width="18" height="36" viewBox="0 0 18 36" fill="none" xmlns="http://www.w3.org/2000/svg" xmlns:xlink="http://www.w3.org/1999/xlink">
<path d="M0.759,32.779C0.174,33.365 0.174,34.315 0.759,34.901C1.345,35.486 2.295,35.486 2.881,34.901L0.759,32.779ZM2.881,1.099C2.295,0.514 1.345,0.514 0.759,1.099C0.174,1.685 0.174,2.635 0.759,3.221L2.881,1.099ZM2.881,34.901L15.921,21.861L13.799,19.739L0.759,32.779L2.881,34.901ZM15.921,21.861C18.047,19.735 18.047,16.265 15.921,14.139L13.799,16.261C14.754,17.215 14.754,18.785 13.799,19.739L15.921,21.861ZM15.921,14.139L2.881,1.099L0.759,3.221L13.799,16.261L15.921,14.139Z" fill="#191D2B"/>
</svg>
