<svg width="26" height="14" viewBox="0 0 26 14" fill="none" xmlns="http://www.w3.org/2000/svg" xmlns:xlink="http://www.w3.org/1999/xlink">
<path d="M23.621,2.994C24.206,2.408 24.206,1.458 23.621,0.873C23.035,0.287 22.085,0.287 21.499,0.873L23.621,2.994ZM2.501,0.873C1.915,0.287 0.965,0.287 0.379,0.873C-0.207,1.458 -0.207,2.408 0.379,2.994L2.501,0.873ZM21.499,0.873L12.806,9.566L14.927,11.687L23.621,2.994L21.499,0.873ZM12.806,9.566C12.365,10.007 11.635,10.007 11.194,9.566L9.073,11.687C10.685,13.3 13.315,13.3 14.927,11.687L12.806,9.566ZM11.194,9.566L2.501,0.873L0.379,2.994L9.073,11.687L11.194,9.566Z" fill="#191D2B"/>
</svg>
