<svg width="12" height="26" viewBox="0 0 12 26" fill="none" xmlns="http://www.w3.org/2000/svg" xmlns:xlink="http://www.w3.org/1999/xlink">
<path d="M8.939,23.621C9.525,24.206 10.475,24.206 11.061,23.621C11.646,23.035 11.646,22.085 11.061,21.499L8.939,23.621ZM1.307,13.867L2.367,12.806L1.307,13.867ZM1.307,10.133L2.367,11.194L1.307,10.133ZM11.061,2.501C11.646,1.915 11.646,0.965 11.061,0.379C10.475,-0.206 9.525,-0.206 8.939,0.379L11.061,2.501ZM11.061,21.499L2.367,12.806L0.246,14.927L8.939,23.621L11.061,21.499ZM2.367,12.806C1.926,12.365 1.926,11.635 2.367,11.194L0.246,9.073C-1.366,10.685 -1.366,13.315 0.246,14.927L2.367,12.806ZM2.367,11.194L11.061,2.501L8.939,0.379L0.246,9.073L2.367,11.194Z" fill="#191D2B"/>
</svg>
