<svg width="38" height="38" viewBox="0 0 38 38" fill="none" xmlns="http://www.w3.org/2000/svg" xmlns:xlink="http://www.w3.org/1999/xlink">
<path d="M35.25,-0.75L0.75,-0.75C-0.08,-0.75 -0.75,-0.08 -0.75,0.75L-0.75,35.25C-0.75,36.08 -0.08,36.75 0.75,36.75L35.25,36.75C36.08,36.75 36.75,36.08 36.75,35.25L36.75,0.75C36.75,-0.08 36.08,-0.75 35.25,-0.75ZM30.919,10.195L27.923,10.195C25.575,10.195 25.12,11.311 25.12,12.952L25.12,16.566L30.727,16.566L29.995,22.223L25.12,22.223L25.12,36.75L19.275,36.75L19.275,22.228L14.386,22.228L14.386,16.566L19.275,16.566L19.275,12.394C19.275,7.552 22.233,4.913 26.555,4.913C28.627,4.913 30.403,5.067 30.923,5.137L30.923,10.195L30.919,10.195Z" fill="#1877F2"/>
</svg>
