<svg width="14" height="26" viewBox="0 0 14 26" fill="none" xmlns="http://www.w3.org/2000/svg" xmlns:xlink="http://www.w3.org/1999/xlink">
<path d="M0.819,21.499C0.233,22.085 0.233,23.035 0.819,23.621C1.405,24.206 2.355,24.206 2.941,23.621L0.819,21.499ZM2.941,0.379C2.355,-0.206 1.405,-0.206 0.819,0.379C0.233,0.965 0.233,1.915 0.819,2.501L2.941,0.379ZM2.941,23.621L11.634,14.927L9.513,12.806L0.819,21.499L2.941,23.621ZM11.634,14.927C13.246,13.315 13.246,10.685 11.634,9.073L9.513,11.194C9.953,11.635 9.953,12.365 9.513,12.806L11.634,14.927ZM11.634,9.073L2.941,0.379L0.819,2.501L9.513,11.194L11.634,9.073Z" fill="#191D2B"/>
</svg>
