<svg width="28" height="28" viewBox="0 0 28 28" fill="none" xmlns="http://www.w3.org/2000/svg" xmlns:xlink="http://www.w3.org/1999/xlink">
<path d="M14,0.667C6.653,0.667 0.667,6.653 0.667,14C0.667,21.347 6.653,27.333 14,27.333C21.347,27.333 27.333,21.347 27.333,14C27.333,6.653 21.347,0.667 14,0.667ZM18.48,17.067C18.867,17.453 18.867,18.093 18.48,18.48C18.28,18.68 18.027,18.773 17.773,18.773C17.52,18.773 17.267,18.68 17.067,18.48L14,15.413L10.933,18.48C10.733,18.68 10.48,18.773 10.227,18.773C9.973,18.773 9.72,18.68 9.52,18.48C9.133,18.093 9.133,17.453 9.52,17.067L12.587,14L9.52,10.933C9.133,10.547 9.133,9.907 9.52,9.52C9.907,9.133 10.547,9.133 10.933,9.52L14,12.587L17.067,9.52C17.453,9.133 18.093,9.133 18.48,9.52C18.867,9.907 18.867,10.547 18.48,10.933L15.413,14L18.48,17.067Z" fill="#FFFFFF"/>
</svg>
