<svg width="18" height="36" viewBox="0 0 18 36" fill="none" xmlns="http://www.w3.org/2000/svg" xmlns:xlink="http://www.w3.org/1999/xlink">
<path d="M14.939,34.901C15.525,35.486 16.475,35.486 17.061,34.901C17.646,34.315 17.646,33.365 17.061,32.779L14.939,34.901ZM2.96,20.8L4.021,19.739L2.96,20.8ZM2.96,15.2L4.021,16.261L2.96,15.2ZM17.061,3.221C17.646,2.635 17.646,1.685 17.061,1.099C16.475,0.514 15.525,0.514 14.939,1.099L17.061,3.221ZM17.061,32.779L4.021,19.739L1.899,21.861L14.939,34.901L17.061,32.779ZM4.021,19.739C3.066,18.785 3.066,17.215 4.021,16.261L1.899,14.139C-0.227,16.265 -0.227,19.735 1.899,21.861L4.021,19.739ZM4.021,16.261L17.061,3.221L14.939,1.099L1.899,14.139L4.021,16.261Z" fill="#191D2B"/>
</svg>
