<svg width="28" height="28" viewBox="0 0 28 28" fill="none" xmlns="http://www.w3.org/2000/svg" xmlns:xlink="http://www.w3.org/1999/xlink">
<path d="M26.747,12.32L24.933,10.213C24.587,9.813 24.307,9.067 24.307,8.533L24.307,6.267C24.307,4.853 23.147,3.693 21.733,3.693L19.467,3.693C18.947,3.693 18.187,3.413 17.787,3.067L15.68,1.253C14.76,0.467 13.253,0.467 12.32,1.253L10.227,3.08C9.827,3.413 9.067,3.693 8.547,3.693L6.24,3.693C4.827,3.693 3.667,4.853 3.667,6.267L3.667,8.547C3.667,9.067 3.387,9.813 3.053,10.213L1.253,12.333C0.48,13.253 0.48,14.747 1.253,15.667L3.053,17.787C3.387,18.187 3.667,18.933 3.667,19.453L3.667,21.733C3.667,23.147 4.827,24.307 6.24,24.307L8.547,24.307C9.067,24.307 9.827,24.587 10.227,24.933L12.333,26.747C13.253,27.533 14.76,27.533 15.693,26.747L17.8,24.933C18.2,24.587 18.947,24.307 19.48,24.307L21.747,24.307C23.16,24.307 24.32,23.147 24.32,21.733L24.32,19.467C24.32,18.947 24.6,18.187 24.947,17.787L26.76,15.68C27.533,14.76 27.533,13.24 26.747,12.32ZM19.547,11.48L13.107,17.92C12.92,18.107 12.667,18.213 12.4,18.213C12.133,18.213 11.88,18.107 11.693,17.92L8.467,14.693C8.08,14.307 8.08,13.667 8.467,13.28C8.853,12.893 9.493,12.893 9.88,13.28L12.4,15.8L18.133,10.067C18.52,9.68 19.16,9.68 19.547,10.067C19.933,10.453 19.933,11.093 19.547,11.48Z" fill="#FFFFFF"/>
</svg>
